<mxfile modified="2022-05-20T01:23:13.078Z" host="app.diagrams.net" agent="5.0 (Windows NT 10.0; Win64; x64) AppleWebKit/537.36 (KHTML, like Gecko) Chrome/101.0.4951.54 Safari/537.36" etag="LMOMd5tkrgV7ydAfvtyc" compressed="false" version="18.0.8" type="google">
  <diagram id="4bgXXZZWLKDrS-0fqXVA" name="Permission Management">
    <mxGraphModel grid="1" page="1" gridSize="10" guides="1" tooltips="1" connect="1" arrows="1" fold="1" pageScale="1" pageWidth="827" pageHeight="1169" math="0" shadow="0">
      <root>
        <mxCell id="vj9NFNpsctyDdZJHX6hg-0" />
        <mxCell id="wERdTFQBSSwt_41Hwb2m-4" value="Diagram/Use Cases" parent="vj9NFNpsctyDdZJHX6hg-0" />
        <mxCell id="gRzEKIzDPof4qPkzU5pQ-1" value="Title/Diagram" parent="vj9NFNpsctyDdZJHX6hg-0" />
        <mxCell id="gRzEKIzDPof4qPkzU5pQ-0" value="&lt;font style=&quot;font-size: 12px&quot;&gt;&lt;span style=&quot;font-size: 12px&quot;&gt;Diagram: Base System Logical Module -&amp;nbsp;&lt;/span&gt;&lt;span style=&quot;font-size: 12px&quot;&gt;Functionality -&amp;nbsp;&lt;/span&gt;Permission Management&lt;/font&gt;" style="text;strokeColor=none;fillColor=none;html=1;fontSize=12;fontStyle=2;verticalAlign=middle;align=left;shadow=0;glass=0;comic=0;opacity=30;fontColor=#808080;" vertex="1" parent="gRzEKIzDPof4qPkzU5pQ-1">
          <mxGeometry x="120" y="200" width="520" height="40" as="geometry" />
        </mxCell>
        <mxCell id="tL2itmjlvSeu3DFbBuZW-0" value="About" parent="vj9NFNpsctyDdZJHX6hg-0" />
      </root>
    </mxGraphModel>
  </diagram>
</mxfile>
